<?xml version="1.0" encoding="UTF-8" standalone="no"?>
<!DOCTYPE svg PUBLIC "-//W3C//DTD SVG 1.1//EN"
 "http://www.w3.org/Graphics/SVG/1.1/DTD/svg11.dtd">
<!-- Generated by graphviz version 2.36.0 (20140111.2315)
 -->
<!-- Title: G Pages: 1 -->
<svg width="298pt" height="204pt"
 viewBox="0.00 0.00 298.00 204.00" xmlns="http://www.w3.org/2000/svg" xmlns:xlink="http://www.w3.org/1999/xlink">
<g id="graph0" class="graph" transform="scale(1 1) rotate(0) translate(4 200)">
<title>G</title>
<polygon fill="white" stroke="none" points="-4,4 -4,-200 294,-200 294,4 -4,4"/>
<g id="clust1" class="cluster"><title>cluster_Global</title>
<path fill="none" stroke="gray" d="M20,-8C20,-8 270,-8 270,-8 276,-8 282,-14 282,-20 282,-20 282,-176 282,-176 282,-182 276,-188 270,-188 270,-188 20,-188 20,-188 14,-188 8,-182 8,-176 8,-176 8,-20 8,-20 8,-14 14,-8 20,-8"/>
<text text-anchor="middle" x="145" y="-175.2" font-family="Times,serif" font-size="11.00" fill="gray">Global</text>
</g>
<!-- \\http -->
<g id="node1" class="node"><title>\\http</title>
<polygon fill="none" stroke="black" points="235,-160 181,-160 181,-124 235,-124 235,-160"/>
<text text-anchor="middle" x="208" y="-139.2" font-family="Courier,monospace" font-size="11.00">http</text>
</g>
<!-- \\Wiki -->
<g id="node2" class="node"><title>\\Wiki</title>
<polygon fill="none" stroke="black" points="70,-106 16,-106 16,-70 70,-70 70,-106"/>
<text text-anchor="middle" x="43" y="-85.2" font-family="Courier,monospace" font-size="11.00">Wiki</text>
</g>
<!-- \\WebArchiveBOT -->
<g id="node3" class="node"><title>\\WebArchiveBOT</title>
<polygon fill="none" stroke="black" points="260,-106 156,-106 156,-70 260,-70 260,-106"/>
<text text-anchor="middle" x="208" y="-85.2" font-family="Courier,monospace" font-size="11.00">WebArchiveBOT</text>
</g>
<!-- \\WebArchiveBOT&#45;&gt;\\Wiki -->
<g id="edge1" class="edge"><title>\\WebArchiveBOT&#45;&gt;\\Wiki</title>
<path fill="none" stroke="black" d="M155.873,-88C131.371,-88 102.594,-88 80.3629,-88"/>
<polygon fill="none" stroke="black" points="80.336,-84.5001 70.3359,-88 80.3359,-91.5001 80.336,-84.5001"/>
</g>
<!-- \\WebArchiveBOT_WWW -->
<g id="node4" class="node"><title>\\WebArchiveBOT_WWW</title>
<polygon fill="none" stroke="black" points="273.5,-52 142.5,-52 142.5,-16 273.5,-16 273.5,-52"/>
<text text-anchor="middle" x="208" y="-31.2" font-family="Courier,monospace" font-size="11.00">WebArchiveBOT_WWW</text>
</g>
</g>
</svg>
