<?xml version="1.0" encoding="UTF-8" standalone="no"?>
<!DOCTYPE svg PUBLIC "-//W3C//DTD SVG 1.1//EN"
 "http://www.w3.org/Graphics/SVG/1.1/DTD/svg11.dtd">
<!-- Generated by graphviz version 2.38.0 (20140413.2041)
 -->
<!-- Title: G Pages: 1 -->
<svg width="270pt" height="150pt"
 viewBox="0.00 0.00 270.00 150.00" xmlns="http://www.w3.org/2000/svg" xmlns:xlink="http://www.w3.org/1999/xlink">
<g id="graph0" class="graph" transform="scale(1 1) rotate(0) translate(4 146)">
<title>G</title>
<polygon fill="white" stroke="none" points="-4,4 -4,-146 266,-146 266,4 -4,4"/>
<g id="clust1" class="cluster"><title>cluster_Global</title>
<path fill="none" stroke="gray" d="M20,-8C20,-8 242,-8 242,-8 248,-8 254,-14 254,-20 254,-20 254,-122 254,-122 254,-128 248,-134 242,-134 242,-134 20,-134 20,-134 14,-134 8,-128 8,-122 8,-122 8,-20 8,-20 8,-14 14,-8 20,-8"/>
<text text-anchor="middle" x="131" y="-121.2" font-family="Times,serif" font-size="11.00" fill="gray">Global</text>
</g>
<!-- \\http -->
<g id="node1" class="node"><title>\\http</title>
<polygon fill="none" stroke="black" points="221,-106 167,-106 167,-70 221,-70 221,-106"/>
<text text-anchor="middle" x="194" y="-85.2" font-family="Courier,monospace" font-size="11.00">http</text>
</g>
<!-- \\Wiki -->
<g id="node2" class="node"><title>\\Wiki</title>
<polygon fill="none" stroke="black" points="70,-52 16,-52 16,-16 70,-16 70,-52"/>
<text text-anchor="middle" x="43" y="-31.2" font-family="Courier,monospace" font-size="11.00">Wiki</text>
</g>
<!-- \\WebArchiveBOT -->
<g id="node3" class="node"><title>\\WebArchiveBOT</title>
<polygon fill="none" stroke="black" points="246,-52 142,-52 142,-16 246,-16 246,-52"/>
<text text-anchor="middle" x="194" y="-31.2" font-family="Courier,monospace" font-size="11.00">WebArchiveBOT</text>
</g>
<!-- \\WebArchiveBOT&#45;&gt;\\Wiki -->
<g id="edge1" class="edge"><title>\\WebArchiveBOT&#45;&gt;\\Wiki</title>
<path fill="none" stroke="black" d="M141.723,-34C121.503,-34 98.7474,-34 80.2853,-34"/>
<polygon fill="none" stroke="black" points="80.2391,-30.5001 70.2391,-34 80.2391,-37.5001 80.2391,-30.5001"/>
</g>
</g>
</svg>
